<svg xmlns="http://www.w3.org/2000/svg" width="172" height="238" viewBox="0 0 172 238" fill="none"><g clip-path="url(#clip0_20_81)"><path d="M123.609 25.2308C117.576 8.17606 101.829 0 85.0327 0C68.2369 0 52.7497 8.17606 46.7168 25.2308L0 160.263H39.109L49.3452 128.256L59.315 97.6537L79.5209 35.2766C80.5746 32.0073 82.4043 30.6021 85.2933 30.6021C88.4429 30.6021 90.0176 32.0016 91.0656 35.2766L111.011 97.6537L120.907 128.024H120.981L131.217 160.263H170.32L123.604 25.2308H123.609Z" fill="#88BD23"></path></g><g clip-path="url(#clip1_20_81)"><path d="M0 175H34.8208C43.5728 192.939 61.258 202.191 85.4689 202.191C111.164 202.191 127.552 192.939 136.304 175H171.125C161.625 213.84 127.739 237.706 85.4689 237.706C43.1989 237.706 9.49969 213.846 0.00567022 175" fill="#25B6EB"></path></g><defs><clipPath id="clip0_20_81"><rect width="171" height="161" fill="white"></rect></clipPath><clipPath id="clip1_20_81"><rect width="172" height="63" fill="white" transform="translate(0 175)"></rect></clipPath></defs></svg>