<svg xmlns="http://www.w3.org/2000/svg" width="1492" height="335" viewBox="0 0 1492 335" fill="none"><path d="M509.078 222.772L529.063 34.7489C533.019 12.0188 549.173 0 571.577 0C591.348 0 608.157 8.44307 613.428 29.5507L650.67 165.939C650.67 166.916 650.993 166.916 650.993 166.916C651.324 166.916 651.655 166.916 651.655 165.939L688.235 30.5195C693.838 9.41969 710.978 0 731.08 0C753.161 0 768.976 12.3417 772.27 35.7176L799.623 222.772H750.852L729.433 51.3121C729.433 49.6896 729.102 48.713 727.786 48.713C726.801 48.713 726.139 49.3588 725.808 50.6584L684.618 195.49C680.001 212.045 666.825 220.166 651.001 220.166C635.178 220.166 621.679 212.368 617.723 196.459L576.533 50.6505C576.202 49.0281 575.54 48.7051 574.886 48.7051C573.901 48.7051 572.908 49.351 572.908 50.9813L557.857 222.765H509.086L509.078 222.772Z" fill="#88BD23"></path><path d="M1114.29 175.792L1154.49 156.331C1161.74 171.964 1177.23 179.943 1200.3 179.943C1221.07 179.943 1236.88 171.649 1236.88 156.331C1236.88 138.46 1219.41 135.593 1196.35 131.765C1163.06 126.339 1117.91 114.856 1117.91 66.3631C1117.91 28.7159 1152.85 0 1198.65 0C1235.23 0 1266.87 16.2718 1281.04 46.9015L1240.84 66.3631C1233.58 52.6432 1219.09 43.0738 1196.68 43.0738C1178.55 43.0738 1166.02 51.3672 1166.02 64.4493C1166.02 81.6741 1184.48 86.1476 1208.53 90.2904C1241.48 95.7091 1284.98 107.2 1284.98 156.008C1284.98 194.608 1247.42 222.686 1200.29 222.686C1160.41 222.686 1128.45 206.414 1114.28 175.784" fill="#88BD23"></path><path d="M1320.58 175.792L1360.79 156.331C1368.04 171.964 1383.52 179.943 1406.59 179.943C1427.36 179.943 1443.17 171.649 1443.17 156.331C1443.17 138.46 1425.7 135.593 1402.64 131.765C1369.35 126.339 1324.21 114.856 1324.21 66.3631C1324.21 28.7159 1359.14 0 1404.95 0C1441.53 0 1473.16 16.2718 1487.33 46.9015L1447.13 66.3631C1439.87 52.6432 1425.38 43.0738 1402.97 43.0738C1384.84 43.0738 1372.31 51.3672 1372.31 64.4493C1372.31 81.6741 1390.77 86.1476 1414.82 90.2904C1447.78 95.7091 1491.27 107.2 1491.27 156.008C1491.27 194.608 1453.71 222.686 1406.59 222.686C1366.7 222.686 1334.74 206.414 1320.57 175.784" fill="#88BD23"></path><path d="M1011.35 35.0718C1002.96 11.3651 981.055 0 957.69 0C934.325 0 912.78 11.3651 904.388 35.0718L839.399 222.772H893.805L908.044 178.281L921.913 135.743L950.022 49.0359C951.488 44.4915 954.033 42.5382 958.052 42.5382C962.434 42.5382 964.624 44.4836 966.082 49.0359L993.828 135.743L1007.6 177.958H1007.7L1021.94 222.772H1076.33L1011.35 35.0718H1011.35Z" fill="#88BD23"></path><path d="M838.846 247.836H887.286C899.461 272.772 924.063 285.633 957.743 285.633C993.488 285.633 1016.29 272.772 1028.46 247.836H1076.9C1063.69 301.826 1016.55 335 957.743 335C898.941 335 852.061 301.834 838.854 247.836" fill="#25B6EB"></path><path d="M245.256 0.685059H197.321V221.536H245.256V0.685059Z" fill="#88BD23"></path><path d="M461.054 44.9796H396.05V221.528H348.107V44.9796H283.103V0.685059H461.054V44.9796Z" fill="#88BD23"></path><path d="M127.534 102.738H47.9355V44.9831H158.582V0.688477H42.3563C12.1513 0.688477 0 16.7634 0 42.0296V221.523H47.9355V146.702H127.534V102.73V102.738Z" fill="#88BD23"></path></svg>