<?xml version="1.0" encoding="UTF-8"?>
<svg id="Camada_2" xmlns="http://www.w3.org/2000/svg" version="1.1" viewBox="0 0 769.7 1083.8">
  <!-- Generator: Adobe Illustrator 30.4.0, SVG Export Plug-In . SVG Version: 2.1.4 Build 226)  -->
  <defs>
    <style>
      .st0 {
        fill: #ff6a00;
      }
    </style>
  </defs>
  <path class="st0" d="M558.1,113.5C530.5,36.8,460,0,384.5,0s-145.4,36.8-172.3,113.5L1.8,720.7h176l46-144.1,44.8-137.4,90.8-280.3c4.9-14.7,12.9-20.9,25.8-20.9s21.5,6.1,25.8,20.9l89.6,280.3,44.8,136.8h0l46,144.7h176L558.1,113.5h0Z"/>
  <path class="st0" d="M0,801.6h156.4c39.2,81,119,122,228.2,122s189.5-41.7,228.8-122h156.4c-42.9,174.8-195,282.1-385.2,282.1S42.9,976.4,0,801.6"/>
</svg>